<svg width="343" height="370" viewBox="0 0 343 370" fill="none" xmlns="http://www.w3.org/2000/svg">
<rect width="343" height="370" rx="16" fill="white" fill-opacity="0.5"/>
<path d="M133.087 198.562C135.491 200.874 140.105 201.413 143.672 198.177C144.951 197.059 147.471 194.401 151.426 190.433C170.811 170.938 182.752 158.647 184.884 160.574C186.59 162.115 179.999 171.4 173.408 180.493C161.351 197.098 151.193 209.234 158.831 216.824C164.801 222.757 173.874 217.363 188.413 204.688C196.205 197.868 201.633 192.821 202.99 194.131C203.843 194.979 201.788 198.331 199.152 202.839C195.43 209.234 190.467 216.477 195.314 221.293C198.687 224.645 205.123 223.181 212.605 215.822C214.156 214.32 214.505 212.509 213.187 211.238C211.985 210.043 210.279 210.236 209 211.392C204.153 216.015 200.548 218.018 199.966 217.363C199.23 216.67 201.284 213.01 204.851 206.691C209.775 197.946 212.799 192.089 208.263 187.697C202.176 181.841 195.042 188.044 182.675 198.87C172.168 208.04 167.864 210.429 166.895 209.388C165.499 207.924 169.376 202.723 180.852 186.773C193.259 169.589 200.625 158.416 193.647 151.635C184.536 142.812 172.284 149.324 141.927 179.183C137.507 183.498 134.754 186.118 133.397 187.736C129.869 191.781 130.645 196.25 133.087 198.562Z" fill="white" fill-opacity="0.5"/>
</svg>
